<svg width="16" height="16" viewBox="0 0 16 16" fill="none" xmlns="http://www.w3.org/2000/svg">
<path d="M11.1241 13.8329C10.2763 13.8329 9.55364 13.534 8.95625 12.9362C8.35886 12.3384 8.05996 11.6158 8.05955 10.7683C8.05914 9.92087 8.35804 9.19824 8.95625 8.60044C9.55445 8.00264 10.2771 7.70374 11.1241 7.70374C11.9712 7.70374 12.694 8.00264 13.2926 8.60044C13.8913 9.19824 14.19 9.92087 14.1887 10.7683C14.1875 11.6158 13.8886 12.3386 13.292 12.9368C12.6955 13.535 11.9728 13.8337 11.1241 13.8329ZM3.1562 7.15212V4.25608C3.1562 4.0007 3.23037 3.77085 3.37869 3.56655C3.52702 3.36224 3.71845 3.21412 3.953 3.12218L7.6305 1.74312C7.77352 1.69204 7.91653 1.6665 8.05955 1.6665C8.20256 1.6665 8.34558 1.69204 8.48859 1.74312L12.1661 3.12218C12.401 3.21412 12.5927 3.36224 12.741 3.56655C12.8893 3.77085 12.9633 4.0007 12.9629 4.25608V6.12548C12.9629 6.29914 12.8863 6.4397 12.733 6.54717C12.5798 6.65463 12.4164 6.68262 12.2427 6.63114C12.0588 6.58006 11.875 6.54186 11.6911 6.51652C11.5072 6.49119 11.3182 6.47832 11.1241 6.47791C9.93916 6.47791 8.92785 6.89674 8.09019 7.73439C7.25254 8.57204 6.83371 9.58336 6.83371 10.7683C6.83371 11.0952 6.87212 11.4146 6.94894 11.7263C7.02576 12.0381 7.13547 12.3521 7.27808 12.6684C7.37001 12.8625 7.34202 13.0361 7.19411 13.1894C7.04619 13.3426 6.87498 13.3732 6.68048 13.2813C6.25144 13.0566 5.85815 12.7807 5.50061 12.4539C5.14308 12.127 4.82641 11.7694 4.55059 11.3813C4.11133 10.7785 3.76912 10.117 3.52395 9.39662C3.27879 8.67624 3.1562 7.92807 3.1562 7.15212ZM11.1241 10.7683C11.3795 10.7683 11.5967 10.6791 11.7757 10.5005C11.9546 10.3219 12.0439 10.1047 12.0435 9.84896C12.0431 9.59317 11.9538 9.37619 11.7757 9.19804C11.5975 9.01988 11.3803 8.9304 11.1241 8.92958C10.8679 8.92876 10.651 9.01825 10.4732 9.19804C10.2955 9.37783 10.206 9.5948 10.2048 9.84896C10.2035 10.1031 10.293 10.3203 10.4732 10.5005C10.6534 10.6807 10.8704 10.77 11.1241 10.7683ZM11.1241 12.6071C11.4408 12.6071 11.7319 12.5329 11.9975 12.3846C12.2631 12.2363 12.4777 12.0397 12.6411 11.795C12.4164 11.6622 12.1763 11.56 11.9209 11.4885C11.6655 11.417 11.3999 11.3813 11.1241 11.3813C10.8483 11.3813 10.5827 11.417 10.3273 11.4885C10.072 11.56 9.8319 11.6622 9.60716 11.795C9.77061 12.0401 9.98513 12.2369 10.2507 12.3852C10.5163 12.5335 10.8075 12.6075 11.1241 12.6071Z" fill="#345782"/>
</svg>
