<svg xmlns="http://www.w3.org/2000/svg">
<path d="M15.0233 15.5924C15.3683 15.9374 15.9008 15.4049 15.5558 15.0674L12.7433 12.2474C13.7301 11.156 14.2755 9.73635 14.2733 8.26492C14.2733 4.97242 11.5958 2.29492 8.30325 2.29492C5.01075 2.29492 2.33325 4.97242 2.33325 8.26492C2.33325 11.5574 5.01075 14.2349 8.30325 14.2349C9.78825 14.2349 11.1608 13.6874 12.2108 12.7799L15.0233 15.5924ZM3.0825 8.26492C3.0825 5.38492 5.43 3.04492 8.3025 3.04492C11.1825 3.04492 13.5225 5.38492 13.5225 8.26492C13.5225 11.1449 11.1825 13.4849 8.3025 13.4849C5.43 13.4849 3.0825 11.1449 3.0825 8.26492Z" fill="black"/>
</svg>
