<svg width="15" height="16" viewBox="0 0 15 16" fill="none" xmlns="http://www.w3.org/2000/svg">
<path d="M7.49988 14.208C6.27202 14.208 5.07175 13.8439 4.05083 13.1617C3.02991 12.4796 2.23419 11.51 1.76432 10.3756C1.29444 9.24124 1.1715 7.99299 1.41104 6.78873C1.65058 5.58447 2.24185 4.47829 3.11007 3.61007C3.97829 2.74185 5.08447 2.15058 6.28873 1.91104C7.49299 1.6715 8.74123 1.79444 9.87562 2.26432C11.01 2.73419 11.9796 3.52991 12.6617 4.55083C13.3439 5.57175 13.708 6.77202 13.708 7.99988C13.7062 9.64581 13.0515 11.2238 11.8877 12.3877C10.7238 13.5515 9.14581 14.2062 7.49988 14.208ZM7.49988 2.41675C6.39564 2.41675 5.3162 2.7442 4.39806 3.35768C3.47992 3.97116 2.76431 4.84312 2.34174 5.86331C1.91917 6.88349 1.8086 8.00607 2.02403 9.08909C2.23946 10.1721 2.7712 11.1669 3.55201 11.9477C4.33282 12.7286 5.32764 13.2603 6.41066 13.4757C7.49368 13.6911 8.61626 13.5806 9.63645 13.158C10.6566 12.7354 11.5286 12.0198 12.1421 11.1017C12.7556 10.1836 13.083 9.10411 13.083 7.99988C13.0813 6.51965 12.4926 5.10052 11.4459 4.05384C10.3992 3.00716 8.9801 2.41841 7.49988 2.41675Z" fill="#345782"/>
<path d="M7.1875 4.25024C7.1875 4.16736 7.22042 4.08788 7.27903 4.02927C7.33763 3.97067 7.41712 3.93774 7.5 3.93774C7.58288 3.93774 7.66237 3.97067 7.72097 4.02927C7.77958 4.08788 7.8125 4.16736 7.8125 4.25024V7.25024C8.51875 6.54399 9.225 5.83149 9.93125 5.12524C9.9901 5.0664 10.0699 5.03334 10.1531 5.03334C10.2363 5.03334 10.3162 5.0664 10.375 5.12524C10.4338 5.18409 10.4669 5.2639 10.4669 5.34712C10.4669 5.43034 10.4338 5.51015 10.375 5.56899L7.7125 8.22524C7.66649 8.27339 7.6052 8.30407 7.53909 8.31205C7.47297 8.32003 7.40614 8.30481 7.35 8.26899C7.34375 8.25649 7.3375 8.25649 7.33125 8.25649C7.29346 8.23568 7.26123 8.20607 7.2373 8.17017C7.21337 8.13427 7.19843 8.09314 7.19375 8.05024L7.1875 4.25024Z" fill="#345782"/>
</svg>
