<svg width="53" height="53" viewBox="0 0 53 53" fill="none" xmlns="http://www.w3.org/2000/svg">
<rect width="53" height="53" rx="26.5" fill="#F24E1E" fill-opacity="0.22"/>
<path d="M24.3947 19.75V20H28.6053V19.75C28.6053 19.2196 28.3835 18.7109 27.9886 18.3358C27.5938 17.9607 27.0584 17.75 26.5 17.75C25.9416 17.75 25.4062 17.9607 25.0114 18.3358C24.6165 18.7109 24.3947 19.2196 24.3947 19.75ZM23.0789 20V19.75C23.0789 18.888 23.4394 18.0614 24.081 17.4519C24.7225 16.8424 25.5927 16.5 26.5 16.5C27.4073 16.5 28.2775 16.8424 28.919 17.4519C29.5606 18.0614 29.9211 18.888 29.9211 19.75V20H35.8421C36.0166 20 36.1839 20.0658 36.3073 20.1831C36.4307 20.3003 36.5 20.4592 36.5 20.625C36.5 20.7908 36.4307 20.9497 36.3073 21.0669C36.1839 21.1842 36.0166 21.25 35.8421 21.25H34.3068L33.2542 33.178C33.1742 34.0838 32.739 34.928 32.0346 35.5433C31.3303 36.1586 30.4084 36.5 29.4516 36.5H23.5484C22.5917 36.4999 21.6699 36.1584 20.9657 35.5431C20.2615 34.9279 19.8263 34.0837 19.7463 33.178L18.6937 21.25H17.1579C16.9834 21.25 16.8161 21.1842 16.6927 21.0669C16.5693 20.9497 16.5 20.7908 16.5 20.625C16.5 20.4592 16.5693 20.3003 16.6927 20.1831C16.8161 20.0658 16.9834 20 17.1579 20H23.0789ZM21.0574 33.0735C21.1098 33.6669 21.3949 34.22 21.8563 34.6231C22.3176 35.0262 22.9216 35.25 23.5484 35.25H29.4516C30.0785 35.2501 30.6826 35.0264 31.1441 34.6233C31.6056 34.2201 31.8908 33.667 31.9432 33.0735L32.9863 21.25H20.0137L21.0574 33.0735ZM25.1842 24.625C25.1842 24.5429 25.1672 24.4617 25.1341 24.3858C25.1011 24.31 25.0526 24.2411 24.9915 24.1831C24.9304 24.125 24.8579 24.079 24.7781 24.0476C24.6983 24.0162 24.6127 24 24.5263 24C24.4399 24 24.3544 24.0162 24.2746 24.0476C24.1947 24.079 24.1222 24.125 24.0611 24.1831C24 24.2411 23.9516 24.31 23.9185 24.3858C23.8854 24.4617 23.8684 24.5429 23.8684 24.625V31.875C23.8684 31.9571 23.8854 32.0383 23.9185 32.1142C23.9516 32.19 24 32.2589 24.0611 32.3169C24.1222 32.375 24.1947 32.421 24.2746 32.4524C24.3544 32.4838 24.4399 32.5 24.5263 32.5C24.6127 32.5 24.6983 32.4838 24.7781 32.4524C24.8579 32.421 24.9304 32.375 24.9915 32.3169C25.0526 32.2589 25.1011 32.19 25.1341 32.1142C25.1672 32.0383 25.1842 31.9571 25.1842 31.875V24.625ZM28.4737 24C28.8368 24 29.1316 24.28 29.1316 24.625V31.875C29.1316 32.0408 29.0623 32.1997 28.9389 32.3169C28.8155 32.4342 28.6482 32.5 28.4737 32.5C28.2992 32.5 28.1319 32.4342 28.0085 32.3169C27.8851 32.1997 27.8158 32.0408 27.8158 31.875V24.625C27.8158 24.28 28.1105 24 28.4737 24Z" fill="#F24E1E"/>
</svg>
