<svg width="84" height="83" viewBox="0 0 84 83" fill="none" xmlns="http://www.w3.org/2000/svg">
<path d="M40.7148 38.9052C42.6045 38.9052 44.4168 38.1545 45.753 36.8183C47.0892 35.4821 47.8399 33.6698 47.8399 31.7801C47.8399 29.8904 47.0892 28.0781 45.753 26.7419C44.4168 25.4057 42.6045 24.655 40.7148 24.655C38.8251 24.655 37.0128 25.4057 35.6766 26.7419C34.3404 28.0781 33.5897 29.8904 33.5897 31.7801C33.5897 33.6698 34.3404 35.4821 35.6766 36.8183C37.0128 38.1545 38.8251 38.9052 40.7148 38.9052ZM45.4648 31.7801C45.4648 33.0399 44.9644 34.2481 44.0736 35.1389C43.1828 36.0297 41.9746 36.5302 40.7148 36.5302C39.455 36.5302 38.2468 36.0297 37.356 35.1389C36.4652 34.2481 35.9647 33.0399 35.9647 31.7801C35.9647 30.5203 36.4652 29.3121 37.356 28.4213C38.2468 27.5305 39.455 27.0301 40.7148 27.0301C41.9746 27.0301 43.1828 27.5305 44.0736 28.4213C44.9644 29.3121 45.4648 30.5203 45.4648 31.7801ZM54.9649 50.7803C54.9649 53.1554 52.5899 53.1554 52.5899 53.1554H28.8396C28.8396 53.1554 26.4646 53.1554 26.4646 50.7803C26.4646 48.4053 28.8396 41.2802 40.7148 41.2802C52.5899 41.2802 54.9649 48.4053 54.9649 50.7803ZM52.5899 50.7708C52.5875 50.1866 52.2242 48.4291 50.6139 46.8188C49.0654 45.2703 46.1512 43.6553 40.7148 43.6553C35.2783 43.6553 32.3642 45.2703 30.8157 46.8188C29.2054 48.4291 28.8444 50.1866 28.8396 50.7708H52.5899Z" fill="#606060"/>
<circle cx="39.81" cy="39.81" r="39.56" stroke="url(#paint0_linear_356_1368)" stroke-width="0.5"/>
<rect x="55" y="54" width="29" height="29" rx="14.5" fill="#345782"/>
<path d="M65 71.6315V72.9994C65 73.0785 65.0314 73.1544 65.0874 73.2103C65.1433 73.2662 65.2192 73.2977 65.2983 73.2977H66.6691C66.7481 73.2976 66.8238 73.2663 66.8797 73.2106L72.5159 67.5744L70.7263 65.7847L65.0877 71.4209C65.0317 71.4767 65.0002 71.5525 65 71.6315ZM71.4648 65.0456L73.2544 66.8353L74.1254 65.9643C74.2372 65.8524 74.3 65.7007 74.3 65.5425C74.3 65.3844 74.2372 65.2327 74.1254 65.1208L73.1799 64.1747C73.068 64.0628 72.9163 64 72.7581 64C72.5999 64 72.4482 64.0628 72.3363 64.1747L71.4648 65.0456Z" fill="#FEFEFE"/>
<defs>
<linearGradient id="paint0_linear_356_1368" x1="-19.7985" y1="-24.708" x2="100.072" y2="104.982" gradientUnits="userSpaceOnUse">
<stop stop-color="#C0C0C0"/>
<stop offset="0.732087" stop-color="#EFEFEF"/>
</linearGradient>
</defs>
</svg>
