<svg width="26" height="36" viewBox="0 0 26 36" fill="none" xmlns="http://www.w3.org/2000/svg">
<path d="M20.9511 7.9061L14.2073 3.7186C13.8384 3.488 13.4122 3.36572 12.9771 3.36572C12.5421 3.36572 12.1158 3.488 11.7469 3.7186L5.0042 7.93006C4.62063 8.17163 4.31619 8.52025 4.12848 8.93287C3.94078 9.34549 3.87802 9.80405 3.94795 10.2519L5.68754 20.6967C5.77908 21.2437 6.06347 21.7398 6.4892 22.0952C6.91492 22.4506 7.45384 22.6418 8.00837 22.6342H17.9896C18.5443 22.6419 19.0833 22.4507 19.5092 22.0953C19.9351 21.7399 20.2197 21.2438 20.3115 20.6967L22.0511 10.2519C22.1213 9.79581 22.054 9.3291 21.8577 8.91144C21.6614 8.49377 21.345 8.14411 20.949 7.90714" fill="white"/>
<path d="M20.9511 7.9061L14.2073 3.7186C13.8384 3.488 13.4122 3.36572 12.9771 3.36572C12.5421 3.36572 12.1158 3.488 11.7469 3.7186L5.0042 7.93006C4.62063 8.17163 4.31619 8.52025 4.12848 8.93287C3.94078 9.34549 3.87802 9.80405 3.94795 10.2519L5.68754 20.6967C5.77908 21.2437 6.06347 21.7398 6.4892 22.0952C6.91492 22.4506 7.45384 22.6418 8.00837 22.6342H17.9896C18.5443 22.6419 19.0833 22.4507 19.5092 22.0953C19.9351 21.7399 20.2197 21.2438 20.3115 20.6967L22.0511 10.2519C22.1213 9.79581 22.054 9.3291 21.8577 8.91143C21.6614 8.49377 21.345 8.14411 20.949 7.90714" stroke="white" stroke-width="1.5" stroke-linecap="round" stroke-linejoin="round"/>
<circle cx="13" cy="32" r="3.5" fill="white"/>
</svg>
