<svg width="30" height="36" viewBox="0 0 30 36" fill="none" xmlns="http://www.w3.org/2000/svg">
<circle cx="14" cy="32.5" r="3.5" fill="white"/>
<path d="M13.3929 15.7327C13.127 15.7206 12.8612 15.7085 12.5833 15.7085C9.65913 15.7085 6.92829 16.5181 4.59621 17.9077C3.53288 18.536 2.91663 19.7202 2.91663 20.9647V24.1668H14.1058C13.2523 22.9494 12.7367 21.5275 12.6115 20.0459C12.4863 18.5644 12.7559 17.0761 13.3929 15.7327Z" fill="white"/>
<path d="M12.5833 14.5002C15.2527 14.5002 17.4167 12.3362 17.4167 9.66683C17.4167 6.99745 15.2527 4.8335 12.5833 4.8335C9.91396 4.8335 7.75 6.99745 7.75 9.66683C7.75 12.3362 9.91396 14.5002 12.5833 14.5002Z" fill="white"/>
<path d="M25.5729 19.3332C25.5729 19.0673 25.5367 18.8257 25.5004 18.5719L26.8779 17.3515L25.6696 15.2611L23.9175 15.8532C23.5309 15.5269 23.0959 15.2732 22.6125 15.0919L22.25 13.2915H19.8334L19.4709 15.0919C18.9875 15.2732 18.5525 15.5269 18.1659 15.8532L16.4138 15.2611L15.2054 17.3515L16.5829 18.5719C16.5467 18.8257 16.5104 19.0673 16.5104 19.3332C16.5104 19.599 16.5467 19.8407 16.5829 20.0944L15.2054 21.3148L16.4138 23.4053L18.1659 22.8132C18.5525 23.1394 18.9875 23.3932 19.4709 23.5744L19.8334 25.3748H22.25L22.6125 23.5744C23.0959 23.3932 23.5309 23.1394 23.9175 22.8132L25.6696 23.4053L26.8779 21.3148L25.5004 20.0944C25.5367 19.8407 25.5729 19.599 25.5729 19.3332ZM21.0417 21.7498C19.7125 21.7498 18.625 20.6623 18.625 19.3332C18.625 18.004 19.7125 16.9165 21.0417 16.9165C22.3709 16.9165 23.4584 18.004 23.4584 19.3332C23.4584 20.6623 22.3709 21.7498 21.0417 21.7498Z" fill="white"/>
</svg>
