<svg width="50" height="50" viewBox="0 0 50 50" fill="none" xmlns="http://www.w3.org/2000/svg">
<g filter="url(#filter0_d_100_1199)">
<circle cx="25" cy="25" r="16" fill="white"/>
</g>
<path d="M29.6879 29.0476L28.7951 22.6777C28.5326 20.8049 26.7303 19.2294 24.8479 19.2294C22.968 19.2294 21.1632 20.8056 20.9008 22.6777L20.0079 29.0476H29.6879ZM19.2915 22.449C19.6674 19.7671 22.1606 17.593 24.8479 17.593C27.5408 17.593 30.0288 19.7694 30.4044 22.449L31.3318 29.0656C31.4571 29.9594 30.8371 30.6839 29.9397 30.6839H19.7561C18.862 30.6839 18.2384 29.9615 18.364 29.0656L19.2915 22.449ZM27.2858 31.5021C27.2858 32.8577 26.1944 33.9567 24.8479 33.9567C23.5015 33.9567 22.4101 32.8577 22.4101 31.5021H23.629C23.629 32.1799 24.1747 32.7294 24.8479 32.7294C25.5211 32.7294 26.0669 32.1799 26.0669 31.5021H27.2858Z" fill="black"/>
<path d="M24.8479 19.2293C25.7455 19.2293 26.4732 18.4966 26.4732 17.5929C26.4732 16.6892 25.7455 15.9565 24.8479 15.9565C23.9503 15.9565 23.2227 16.6892 23.2227 17.5929C23.2227 18.4966 23.9503 19.2293 24.8479 19.2293Z" fill="black"/>
<defs>
<filter id="filter0_d_100_1199" x="0.652174" y="0.652174" width="48.6957" height="48.6957" filterUnits="userSpaceOnUse" color-interpolation-filters="sRGB">
<feFlood flood-opacity="0" result="BackgroundImageFix"/>
<feColorMatrix in="SourceAlpha" type="matrix" values="0 0 0 0 0 0 0 0 0 0 0 0 0 0 0 0 0 0 127 0" result="hardAlpha"/>
<feMorphology radius="2.78261" operator="dilate" in="SourceAlpha" result="effect1_dropShadow_100_1199"/>
<feOffset/>
<feGaussianBlur stdDeviation="2.78261"/>
<feComposite in2="hardAlpha" operator="out"/>
<feColorMatrix type="matrix" values="0 0 0 0 0 0 0 0 0 0 0 0 0 0 0 0 0 0 0.05 0"/>
<feBlend mode="normal" in2="BackgroundImageFix" result="effect1_dropShadow_100_1199"/>
<feBlend mode="normal" in="SourceGraphic" in2="effect1_dropShadow_100_1199" result="shape"/>
</filter>
</defs>
</svg>
