<svg width="44" height="44" viewBox="0 0 44 44" fill="none" xmlns="http://www.w3.org/2000/svg">
<path d="M22.5 21.5C23.5443 21.5 24.5458 21.0852 25.2842 20.3467C26.0227 19.6083 26.4375 18.6068 26.4375 17.5625C26.4375 16.5182 26.0227 15.5167 25.2842 14.7783C24.5458 14.0398 23.5443 13.625 22.5 13.625C21.4557 13.625 20.4542 14.0398 19.7158 14.7783C18.9773 15.5167 18.5625 16.5182 18.5625 17.5625C18.5625 18.6068 18.9773 19.6083 19.7158 20.3467C20.4542 21.0852 21.4557 21.5 22.5 21.5ZM25.125 17.5625C25.125 18.2587 24.8484 18.9264 24.3562 19.4187C23.8639 19.9109 23.1962 20.1875 22.5 20.1875C21.8038 20.1875 21.1361 19.9109 20.6438 19.4187C20.1516 18.9264 19.875 18.2587 19.875 17.5625C19.875 16.8663 20.1516 16.1986 20.6438 15.7063C21.1361 15.2141 21.8038 14.9375 22.5 14.9375C23.1962 14.9375 23.8639 15.2141 24.3562 15.7063C24.8484 16.1986 25.125 16.8663 25.125 17.5625ZM30.375 28.0625C30.375 29.375 29.0625 29.375 29.0625 29.375H15.9375C15.9375 29.375 14.625 29.375 14.625 28.0625C14.625 26.75 15.9375 22.8125 22.5 22.8125C29.0625 22.8125 30.375 26.75 30.375 28.0625ZM29.0625 28.0573C29.0612 27.7344 28.8604 26.7631 27.9705 25.8733C27.1147 25.0175 25.5043 24.125 22.5 24.125C19.4957 24.125 17.8853 25.0175 17.0295 25.8733C16.1396 26.7631 15.9401 27.7344 15.9375 28.0573H29.0625Z" fill="#606060"/>
<circle cx="22" cy="22" r="21.75" stroke="url(#paint0_linear_356_1548)" stroke-width="0.5"/>
<defs>
<linearGradient id="paint0_linear_356_1548" x1="-10.9411" y1="-13.6542" x2="55.3025" y2="58.0156" gradientUnits="userSpaceOnUse">
<stop stop-color="#C0C0C0"/>
<stop offset="0.732087" stop-color="#EFEFEF"/>
</linearGradient>
</defs>
</svg>
