<svg width="14" height="14" viewBox="0 0 14 14" fill="none" xmlns="http://www.w3.org/2000/svg">
<path d="M13.0233 13.5924C13.3683 13.9374 13.9008 13.4049 13.5558 13.0674L10.7433 10.2474C11.7301 9.15596 12.2755 7.73635 12.2733 6.26492C12.2733 2.97242 9.59575 0.294922 6.30325 0.294922C3.01075 0.294922 0.333252 2.97242 0.333252 6.26492C0.333252 9.55742 3.01075 12.2349 6.30325 12.2349C7.78825 12.2349 9.16075 11.6874 10.2108 10.7799L13.0233 13.5924ZM1.0825 6.26492C1.0825 3.38492 3.43 1.04492 6.3025 1.04492C9.1825 1.04492 11.5225 3.38492 11.5225 6.26492C11.5225 9.14492 9.1825 11.4849 6.3025 11.4849C3.43 11.4849 1.0825 9.14492 1.0825 6.26492Z" fill="black"/>
</svg>
