<svg width="14" height="14" viewBox="0 0 14 14" fill="none" xmlns="http://www.w3.org/2000/svg">
<path d="M9.91667 8.16642C10.0714 8.16642 10.2197 8.10496 10.3291 7.99557C10.4385 7.88617 10.5 7.7378 10.5 7.58309C10.5 7.42838 10.4385 7.28001 10.3291 7.17061C10.2197 7.06121 10.0714 6.99976 9.91667 6.99976C9.76196 6.99976 9.61358 7.06121 9.50419 7.17061C9.39479 7.28001 9.33333 7.42838 9.33333 7.58309C9.33333 7.7378 9.39479 7.88617 9.50419 7.99557C9.61358 8.10496 9.76196 8.16642 9.91667 8.16642ZM9.91667 10.4998C10.0714 10.4998 10.2197 10.4383 10.3291 10.3289C10.4385 10.2195 10.5 10.0711 10.5 9.91642C10.5 9.76171 10.4385 9.61334 10.3291 9.50394C10.2197 9.39455 10.0714 9.33309 9.91667 9.33309C9.76196 9.33309 9.61358 9.39455 9.50419 9.50394C9.39479 9.61334 9.33333 9.76171 9.33333 9.91642C9.33333 10.0711 9.39479 10.2195 9.50419 10.3289C9.61358 10.4383 9.76196 10.4998 9.91667 10.4998ZM7.58333 7.58309C7.58333 7.7378 7.52187 7.88617 7.41248 7.99557C7.30308 8.10496 7.15471 8.16642 7 8.16642C6.84529 8.16642 6.69692 8.10496 6.58752 7.99557C6.47812 7.88617 6.41667 7.7378 6.41667 7.58309C6.41667 7.42838 6.47812 7.28001 6.58752 7.17061C6.69692 7.06121 6.84529 6.99976 7 6.99976C7.15471 6.99976 7.30308 7.06121 7.41248 7.17061C7.52187 7.28001 7.58333 7.42838 7.58333 7.58309ZM7.58333 9.91642C7.58333 10.0711 7.52187 10.2195 7.41248 10.3289C7.30308 10.4383 7.15471 10.4998 7 10.4998C6.84529 10.4998 6.69692 10.4383 6.58752 10.3289C6.47812 10.2195 6.41667 10.0711 6.41667 9.91642C6.41667 9.76171 6.47812 9.61334 6.58752 9.50394C6.69692 9.39455 6.84529 9.33309 7 9.33309C7.15471 9.33309 7.30308 9.39455 7.41248 9.50394C7.52187 9.61334 7.58333 9.76171 7.58333 9.91642ZM4.08333 8.16642C4.23804 8.16642 4.38642 8.10496 4.49581 7.99557C4.60521 7.88617 4.66667 7.7378 4.66667 7.58309C4.66667 7.42838 4.60521 7.28001 4.49581 7.17061C4.38642 7.06121 4.23804 6.99976 4.08333 6.99976C3.92862 6.99976 3.78025 7.06121 3.67085 7.17061C3.56146 7.28001 3.5 7.42838 3.5 7.58309C3.5 7.7378 3.56146 7.88617 3.67085 7.99557C3.78025 8.10496 3.92862 8.16642 4.08333 8.16642ZM4.08333 10.4998C4.23804 10.4998 4.38642 10.4383 4.49581 10.3289C4.60521 10.2195 4.66667 10.0711 4.66667 9.91642C4.66667 9.76171 4.60521 9.61334 4.49581 9.50394C4.38642 9.39455 4.23804 9.33309 4.08333 9.33309C3.92862 9.33309 3.78025 9.39455 3.67085 9.50394C3.56146 9.61334 3.5 9.76171 3.5 9.91642C3.5 10.0711 3.56146 10.2195 3.67085 10.3289C3.78025 10.4383 3.92862 10.4998 4.08333 10.4998Z" fill="#345782"/>
<path fill-rule="evenodd" clip-rule="evenodd" d="M4.08332 1.02051C4.19935 1.02051 4.31063 1.0666 4.39268 1.14865C4.47473 1.2307 4.52082 1.34198 4.52082 1.45801V1.90309C4.90699 1.89551 5.33224 1.89551 5.80007 1.89551H8.19932C8.66774 1.89551 9.09299 1.89551 9.47915 1.90309V1.45801C9.47915 1.34198 9.52525 1.2307 9.6073 1.14865C9.68934 1.0666 9.80062 1.02051 9.91665 1.02051C10.0327 1.02051 10.144 1.0666 10.226 1.14865C10.3081 1.2307 10.3542 1.34198 10.3542 1.45801V1.94042C10.5058 1.95209 10.6493 1.96667 10.7852 1.98476C11.4689 2.07692 12.0225 2.27059 12.4594 2.70692C12.8957 3.14384 13.0894 3.69742 13.1816 4.38109C13.2708 5.04609 13.2708 5.89484 13.2708 6.96701V8.19901C13.2708 9.27117 13.2708 10.1205 13.1816 10.7849C13.0894 11.4686 12.8957 12.0222 12.4594 12.4591C12.0225 12.8954 11.4689 13.0891 10.7852 13.1813C10.1202 13.2705 9.27149 13.2705 8.19932 13.2705H5.80124C4.72907 13.2705 3.87974 13.2705 3.21532 13.1813C2.53165 13.0891 1.97807 12.8954 1.54115 12.4591C1.10482 12.0222 0.911153 11.4686 0.818986 10.7849C0.729736 10.1199 0.729736 9.27117 0.729736 8.19901V6.96701C0.729736 5.89484 0.729736 5.04551 0.818986 4.38109C0.911153 3.69742 1.10482 3.14384 1.54115 2.70692C1.97807 2.27059 2.53165 2.07692 3.21532 1.98476C3.35124 1.96667 3.49532 1.95209 3.6464 1.94042V1.45801C3.6464 1.34208 3.69242 1.23089 3.77434 1.14885C3.85626 1.06682 3.96739 1.02066 4.08332 1.02051ZM3.33082 2.85217C2.74457 2.93092 2.40624 3.07909 2.15949 3.32584C1.91274 3.57259 1.76457 3.91092 1.68582 4.49776C1.6724 4.59692 1.66132 4.70192 1.65199 4.81217H12.348C12.3387 4.70134 12.3276 4.59692 12.3142 4.49717C12.2354 3.91092 12.0872 3.57259 11.8405 3.32584C11.5937 3.07909 11.2554 2.93092 10.6686 2.85217C10.0695 2.77167 9.27907 2.77051 8.16665 2.77051H5.83332C4.7209 2.77051 3.93107 2.77167 3.33082 2.85217ZM1.60415 6.99967C1.60415 6.50151 1.60415 6.06809 1.61174 5.68717H12.3882C12.3958 6.06809 12.3958 6.50151 12.3958 6.99967V8.16634C12.3958 9.27876 12.3947 10.0692 12.3142 10.6688C12.2354 11.2551 12.0872 11.5934 11.8405 11.8402C11.5937 12.0869 11.2554 12.2351 10.6686 12.3138C10.0695 12.3943 9.27907 12.3955 8.16665 12.3955H5.83332C4.7209 12.3955 3.93107 12.3943 3.33082 12.3138C2.74457 12.2351 2.40624 12.0869 2.15949 11.8402C1.91274 11.5934 1.76457 11.2551 1.68582 10.6683C1.60532 10.0692 1.60415 9.27876 1.60415 8.16634V6.99967Z" fill="#345782"/>
</svg>
